<svg width="743" height="317" viewBox="0 0 743 317" fill="none" xmlns="http://www.w3.org/2000/svg">
<path d="M238.502 252.895H204.613V312.513H122.448V252.895H0V191.995L127.883 4.4873H204.613V190.713H238.502V252.895ZM122.448 190.713V154.814C122.448 148.083 122.768 139.108 123.087 127.569C123.727 116.03 124.046 110.261 124.366 109.62H122.128C117.333 120.518 111.898 130.454 105.823 140.07L71.9342 190.713H122.448Z" fill="#FD867A"/>
<path d="M482.119 158.981C482.119 213.47 472.847 253.536 454.944 278.857C436.72 304.179 408.906 317 371.18 317C334.414 317 306.919 303.858 288.056 277.255C269.513 250.651 260.242 211.226 260.242 158.981C260.242 104.171 269.194 64.1052 287.737 38.4631C305.96 12.821 333.775 0 371.5 0C407.947 0 435.761 13.4621 454.304 40.0657C472.847 66.6694 482.119 106.094 482.119 158.981ZM342.726 158.981C342.726 193.918 344.964 217.958 349.12 230.779C353.596 243.92 360.63 250.331 370.861 250.331C381.091 250.331 388.445 243.6 392.92 230.138C397.077 216.675 399.315 192.957 399.315 158.981C399.315 124.685 397.077 100.966 392.92 87.183C388.445 73.4004 381.411 66.6694 371.18 66.6694C360.95 66.6694 353.596 73.4004 349.44 86.542C344.964 99.6835 342.726 123.723 342.726 158.981Z" fill="#FD867A"/>
<path d="M743 252.895H709.111V312.513H626.946V252.895H504.498V191.995L632.381 4.4873H709.111V190.713H743V252.895ZM627.266 190.713V154.814C627.266 148.083 627.586 139.108 627.905 127.569C628.545 116.03 628.864 110.261 629.184 109.62H626.946C622.151 120.518 616.716 130.454 610.641 140.07L576.432 191.033H627.266V190.713Z" fill="#FD867A"/>
<g clip-path="url(#clip0_1435_3704)">
<path d="M452.537 166.964C477.651 166.964 498.009 146.595 498.009 121.468C498.009 96.3421 477.651 75.9731 452.537 75.9731C427.424 75.9731 407.066 96.3421 407.066 121.468C407.066 146.595 427.424 166.964 452.537 166.964Z" fill="white"/>
<path d="M302.934 166.964C328.048 166.964 348.406 146.595 348.406 121.468C348.406 96.3421 328.048 75.9731 302.934 75.9731C277.821 75.9731 257.463 96.3421 257.463 121.468C257.463 146.595 277.821 166.964 302.934 166.964Z" fill="white"/>
<path d="M329.668 84.7495C334.323 91.9141 337.008 100.392 337.008 109.587C337.008 134.723 316.659 155.082 291.537 155.082C281.511 155.082 272.262 151.798 264.743 146.305C272.859 158.784 286.882 166.963 302.875 166.963C327.998 166.963 348.346 146.604 348.346 121.468C348.346 106.422 341.007 93.0485 329.668 84.7495Z" fill="#EFEFEF"/>
<path d="M479.271 84.7495C483.926 91.9141 486.611 100.392 486.611 109.587C486.611 134.723 466.263 155.082 441.14 155.082C431.114 155.082 421.865 151.798 414.346 146.305C422.462 158.784 436.485 166.963 452.478 166.963C477.601 166.963 497.949 146.604 497.949 121.468C497.949 106.422 490.55 93.0485 479.271 84.7495Z" fill="#EFEFEF"/>
<path d="M302.934 169.113C276.737 169.113 255.374 147.738 255.374 121.528C255.374 95.3173 276.737 73.9429 302.934 73.9429C329.131 73.9429 350.495 95.3173 350.495 121.528C350.495 147.738 329.131 169.113 302.934 169.113ZM302.934 78.0625C279.005 78.0625 259.551 97.5264 259.551 121.468C259.551 145.41 279.005 164.874 302.934 164.874C326.864 164.874 346.318 145.41 346.318 121.468C346.318 97.5861 326.864 78.0625 302.934 78.0625Z" fill="#131A46"/>
<path d="M286.763 128.812C298.924 128.812 308.782 118.948 308.782 106.781C308.782 94.6132 298.924 84.7495 286.763 84.7495C274.602 84.7495 264.743 94.6132 264.743 106.781C264.743 118.948 274.602 128.812 286.763 128.812Z" fill="#131A46"/>
<path d="M281.392 111.796C286.369 111.796 290.403 107.76 290.403 102.781C290.403 97.8015 286.369 93.7651 281.392 93.7651C276.416 93.7651 272.381 97.8015 272.381 102.781C272.381 107.76 276.416 111.796 281.392 111.796Z" fill="white"/>
<path d="M452.537 169.113C426.341 169.113 404.977 147.738 404.977 121.528C404.977 95.3173 426.341 73.9429 452.537 73.9429C478.734 73.9429 500.098 95.3173 500.098 121.528C500.098 147.738 478.734 169.113 452.537 169.113ZM452.537 78.0625C428.608 78.0625 409.154 97.5264 409.154 121.468C409.154 145.41 428.608 164.874 452.537 164.874C476.467 164.874 495.921 145.41 495.921 121.468C495.921 97.5861 476.467 78.0625 452.537 78.0625Z" fill="#131A46"/>
<path d="M466.143 159.082C478.304 159.082 488.163 149.219 488.163 137.051C488.163 124.884 478.304 115.02 466.143 115.02C453.982 115.02 444.123 124.884 444.123 137.051C444.123 149.219 453.982 159.082 466.143 159.082Z" fill="#131A46"/>
<path d="M460.773 142.067C465.749 142.067 469.783 138.03 469.783 133.051C469.783 128.072 465.749 124.036 460.773 124.036C455.796 124.036 451.762 128.072 451.762 133.051C451.762 138.03 455.796 142.067 460.773 142.067Z" fill="white"/>
<path d="M244.752 59.6139C252.45 68.4502 259.372 52.4493 283.182 47.4341C303.054 43.2547 315.466 53.2254 318.927 45.7026C322.388 38.1798 306.515 27.6717 277.275 32.3287C255.493 35.7319 235.801 49.3446 244.752 59.6139Z" fill="#131A46"/>
<path d="M510.123 61.0467C501.948 69.4651 495.921 53.1059 472.409 46.7772C452.776 41.5231 439.827 50.7774 436.784 43.0755C433.74 35.3735 450.151 25.761 479.092 31.9703C500.694 36.6273 519.611 51.2551 510.123 61.0467Z" fill="#131A46"/>
<path d="M371.023 268.761C356.462 268.761 345.422 255.984 334.621 243.505C324.835 232.162 314.69 220.4 302.696 219.862C275.663 218.608 246.363 256.581 246.065 256.939C244.573 258.909 241.768 259.268 239.799 257.775C237.83 256.282 237.472 253.476 238.964 251.506C240.277 249.834 270.293 210.907 301.383 210.907C301.98 210.907 302.517 210.907 303.113 210.966C318.927 211.742 330.325 224.937 341.365 237.714C353.061 251.267 363.205 262.969 376.274 259.029C388.686 255.267 399.726 243.386 410.467 231.923C423.894 217.534 437.738 202.667 454.805 204.518C471.156 206.309 484.583 216.28 493.713 233.356C500.396 245.894 502.365 257.835 502.425 258.312C502.843 260.76 501.172 263.029 498.725 263.447C496.279 263.865 494.011 262.193 493.593 259.745C493.534 259.327 486.194 216.877 453.85 213.414C441.259 212.041 429.503 224.698 417.031 238.013C405.514 250.312 393.639 263.089 378.9 267.567C376.155 268.343 373.529 268.761 371.023 268.761Z" fill="#131A46"/>
<path d="M226.85 243.386C223.448 251.864 224.881 262.014 230.072 269.477C231.564 271.626 233.295 273.537 235.383 275.149C236.04 275.686 236.935 275.806 237.532 275.149C238.069 274.612 238.188 273.477 237.532 272.999C230.908 267.805 227.506 259.327 228.163 250.968C228.342 248.64 228.938 246.371 229.774 244.162C230.072 243.386 229.416 242.49 228.7 242.251C227.864 242.072 227.148 242.61 226.85 243.386Z" fill="#131A46"/>
<path d="M497.174 276.881C502.604 277.776 507.557 274.313 510.958 270.373C514.181 266.611 516.508 261.954 517.463 257.118C518 254.312 518.179 251.446 517.881 248.64C517.821 247.804 517.224 247.088 516.329 247.088C515.553 247.088 514.718 247.804 514.778 248.64C515.673 257.178 512.152 266.671 505.051 271.746C503.022 273.179 500.515 274.373 497.949 273.955C497.114 273.836 496.279 274.194 496.04 275.03C495.921 275.746 496.338 276.761 497.174 276.881Z" fill="#131A46"/>
</g>
<defs>
<clipPath id="clip0_1435_3704">
<rect width="293" height="247" fill="white" transform="translate(225 30)"/>
</clipPath>
</defs>
</svg>
