<svg width="264" height="404" viewBox="0 0 264 404" fill="none" xmlns="http://www.w3.org/2000/svg">
<path d="M3.5 2C3.5 1.17157 2.82843 0.5 2 0.5C1.17157 0.5 0.5 1.17157 0.5 2H3.5ZM263.061 393.061C263.646 392.475 263.646 391.525 263.061 390.939L253.515 381.393C252.929 380.808 251.979 380.808 251.393 381.393C250.808 381.979 250.808 382.929 251.393 383.515L259.879 392L251.393 400.485C250.808 401.071 250.808 402.021 251.393 402.607C251.979 403.192 252.929 403.192 253.515 402.607L263.061 393.061ZM0.504925 7.04526C0.50655 7.87369 1.17944 8.54394 2.00787 8.54231C2.83629 8.54069 3.50654 7.8678 3.50492 7.03937L0.504925 7.04526ZM3.54445 16.9919C3.53946 16.1635 2.86386 15.496 2.03544 15.501C1.20703 15.506 0.539516 16.1816 0.544507 17.01L3.54445 16.9919ZM0.62415 26.8081C0.632663 27.6365 1.3111 28.3011 2.13949 28.2926C2.96787 28.2841 3.6325 27.6057 3.62399 26.7773L0.62415 26.8081ZM3.74754 36.6345C3.73525 35.8061 3.05378 35.1446 2.22545 35.1569C1.39711 35.1692 0.735579 35.8507 0.747871 36.679L3.74754 36.6345ZM0.919941 46.6421C0.936303 47.4703 1.62101 48.1285 2.44928 48.1122C3.27754 48.0958 3.93572 47.4111 3.91936 46.5828L0.919941 46.6421ZM4.13721 56.3503C4.11658 55.5221 3.42849 54.8674 2.60032 54.8881C1.77215 54.9087 1.11751 55.5968 1.13814 56.425L4.13721 56.3503ZM1.41237 66.3353C1.43762 67.1634 2.12935 67.8142 2.95739 67.7889C3.78544 67.7637 4.43623 67.0719 4.41098 66.2439L1.41237 66.3353ZM4.74257 76.155C4.71236 75.3271 4.01674 74.6805 3.18887 74.7107C2.36099 74.7409 1.71435 75.4365 1.74456 76.2644L4.74257 76.155ZM2.13005 85.9985C2.16546 86.8262 2.86513 87.4684 3.6928 87.433C4.52047 87.3976 5.16272 86.6979 5.12731 85.8702L2.13005 85.9985ZM5.58828 95.8436C5.54713 95.0162 4.84302 94.3788 4.01562 94.42C3.18821 94.4611 2.55083 95.1652 2.59198 95.9926L5.58828 95.8436ZM3.11805 105.848C3.16528 106.675 3.87406 107.307 4.70114 107.26C5.52822 107.212 6.1604 106.504 6.11316 105.677L3.11805 105.848ZM6.70932 115.447C6.65557 114.621 5.94185 113.994 5.11516 114.048C4.28848 114.102 3.66189 114.815 3.71564 115.642L6.70932 115.447ZM4.40603 125.605C4.46692 126.431 5.18603 127.051 6.01222 126.99C6.8384 126.93 7.4588 126.21 7.39792 125.384L4.40603 125.605ZM8.15706 135.089C8.08864 134.263 7.3639 133.65 6.5383 133.718C5.7127 133.787 5.09889 134.511 5.16731 135.337L8.15706 135.089ZM6.04244 145.293C6.1192 146.118 6.85011 146.725 7.67498 146.648C8.49984 146.571 9.1063 145.84 9.02954 145.015L6.04244 145.293ZM9.99091 154.782C9.90524 153.958 9.16783 153.36 8.34384 153.445C7.51985 153.531 6.92133 154.268 7.00699 155.092L9.99091 154.782ZM8.08765 164.931C8.18302 165.754 8.92744 166.344 9.75036 166.248C10.5733 166.153 11.1631 165.408 11.0677 164.585L8.08765 164.931ZM12.2663 174.385C12.1604 173.563 11.4085 172.983 10.5868 173.089C9.76521 173.195 9.18504 173.947 9.29098 174.768L12.2663 174.385ZM10.6169 184.523C10.7343 185.343 11.4942 185.913 12.3143 185.795C13.1343 185.678 13.704 184.918 13.5866 184.098L10.6169 184.523ZM15.0641 193.891C14.9342 193.073 14.1655 192.515 13.3474 192.645C12.5292 192.775 11.9713 193.544 12.1013 194.362L15.0641 193.891ZM13.7237 204.059C13.8673 204.875 14.6452 205.42 15.461 205.277C16.2769 205.133 16.8219 204.355 16.6783 203.539L13.7237 204.059ZM18.4839 213.276C18.3252 212.463 17.5374 211.933 16.7243 212.092C15.9113 212.25 15.3808 213.038 15.5395 213.851L18.4839 213.276ZM17.5239 223.506C17.699 224.316 18.4973 224.83 19.307 224.655C20.1167 224.48 20.6312 223.682 20.4561 222.872L17.5239 223.506ZM22.6476 232.49C22.4543 231.685 21.6446 231.188 20.839 231.382C20.0335 231.575 19.5371 232.385 19.7303 233.19L22.6476 232.49ZM22.1587 242.796C22.3718 243.597 23.1936 244.073 23.9941 243.86C24.7947 243.647 25.2708 242.825 25.0577 242.025L22.1587 242.796ZM27.7021 251.447C27.4672 250.652 26.6327 250.199 25.8383 250.434C25.0439 250.669 24.5903 251.503 24.8252 252.298L27.7021 251.447ZM27.7977 261.821C28.0568 262.608 28.9047 263.036 29.6916 262.777C30.4785 262.518 30.9063 261.67 30.6472 260.883L27.7977 261.821ZM33.847 270.088C33.5617 269.31 32.6999 268.911 31.9221 269.196C31.1444 269.482 30.7452 270.343 31.0305 271.121L33.847 270.088ZM34.6381 280.42C34.9525 281.187 35.8286 281.553 36.5951 281.239C37.3616 280.924 37.7281 280.048 37.4137 279.282L34.6381 280.42ZM41.3252 288.29C40.9793 287.537 40.0886 287.207 39.3359 287.553C38.5832 287.899 38.2534 288.79 38.5993 289.543L41.3252 288.29ZM42.9262 298.426C43.3061 299.163 44.2108 299.451 44.947 299.072C45.6832 298.692 45.972 297.787 45.5921 297.051L42.9262 298.426ZM50.3108 305.662C49.8941 304.946 48.9759 304.703 48.2599 305.12C47.5439 305.536 47.3011 306.454 47.7178 307.17L50.3108 305.662ZM52.9655 315.65C53.421 316.342 54.3512 316.534 55.0432 316.078C55.7351 315.623 55.9269 314.692 55.4714 314.001L52.9655 315.65ZM61.0768 321.995C60.581 321.331 59.6411 321.195 58.9774 321.691C58.3137 322.187 58.1776 323.127 58.6734 323.79L61.0768 321.995ZM64.8671 331.561C65.4038 332.192 66.3505 332.269 66.9815 331.732C67.6125 331.195 67.6889 330.248 67.1521 329.617L64.8671 331.561ZM73.7319 336.853C73.1542 336.259 72.2046 336.246 71.6107 336.823C71.0169 337.401 71.0037 338.35 71.5814 338.944L73.7319 336.853ZM78.7781 345.854C79.3951 346.407 80.3434 346.355 80.8963 345.738C81.4491 345.121 81.3971 344.172 80.7802 343.62L78.7781 345.854ZM88.2679 349.876C87.6143 349.367 86.6718 349.485 86.1629 350.138C85.6539 350.792 85.7713 351.735 86.425 352.243L88.2679 349.876ZM94.4927 358.092C95.1796 358.556 96.1119 358.374 96.575 357.688C97.0382 357.001 96.8569 356.068 96.1701 355.605L94.4927 358.092ZM104.454 360.8C103.738 360.383 102.82 360.625 102.403 361.341C101.986 362.057 102.228 362.975 102.944 363.392L104.454 360.8ZM111.707 368.131C112.448 368.503 113.349 368.204 113.72 367.463C114.092 366.723 113.793 365.821 113.052 365.45L111.707 368.131ZM121.904 369.568C121.143 369.24 120.261 369.591 119.933 370.352C119.605 371.113 119.956 371.995 120.717 372.323L121.904 369.568ZM129.95 376.007C130.727 376.294 131.59 375.896 131.877 375.119C132.163 374.341 131.766 373.479 130.988 373.192L129.95 376.007ZM140.28 376.36C139.49 376.111 138.647 376.551 138.399 377.341C138.15 378.131 138.59 378.973 139.38 379.222L140.28 376.36ZM148.937 381.994C149.738 382.208 150.56 381.732 150.773 380.932C150.987 380.131 150.511 379.309 149.711 379.096L148.937 381.994ZM159.199 381.427C158.391 381.245 157.588 381.752 157.406 382.56C157.224 383.368 157.731 384.171 158.54 384.353L159.199 381.427ZM168.263 386.364C169.077 386.518 169.861 385.983 170.015 385.169C170.169 384.355 169.634 383.571 168.82 383.417L168.263 386.364ZM178.558 385.097C177.74 384.969 176.972 385.528 176.844 386.347C176.716 387.165 177.275 387.933 178.093 388.061L178.558 385.097ZM187.84 389.45C188.661 389.556 189.413 388.976 189.519 388.154C189.625 387.333 189.045 386.581 188.223 386.475L187.84 389.45ZM198.006 387.612C197.182 387.526 196.444 388.125 196.358 388.948C196.273 389.772 196.871 390.51 197.695 390.596L198.006 387.612ZM207.586 391.514C208.412 391.582 209.136 390.968 209.204 390.142C209.272 389.317 208.658 388.592 207.832 388.524L207.586 391.514ZM217.598 389.231C216.771 389.179 216.059 389.807 216.007 390.634C215.955 391.461 216.583 392.173 217.41 392.225L217.598 389.231ZM227.364 392.764C228.191 392.802 228.893 392.162 228.931 391.334C228.969 390.507 228.328 389.805 227.501 389.767L227.364 392.764ZM237.277 390.139C236.449 390.114 235.757 390.765 235.732 391.593C235.706 392.421 236.357 393.113 237.185 393.138L237.277 390.139ZM247.105 393.375C247.934 393.389 248.617 392.729 248.631 391.901C248.645 391.073 247.986 390.39 247.157 390.375L247.105 393.375ZM256.994 390.486C256.165 390.482 255.49 391.15 255.485 391.978C255.481 392.807 256.149 393.482 256.977 393.486L256.994 390.486ZM0.5 2C0.5 3.68877 0.501638 5.37051 0.504925 7.04526L3.50492 7.03937C3.50164 5.36661 3.5 3.68683 3.5 2H0.5ZM0.544507 17.01C0.564351 20.3037 0.590871 23.5697 0.62415 26.8081L3.62399 26.7773C3.59076 23.5432 3.56427 20.2815 3.54445 16.9919L0.544507 17.01ZM0.747871 36.679C0.797604 40.0302 0.854928 43.3512 0.919941 46.6421L3.91936 46.5828C3.85444 43.2969 3.7972 39.9809 3.74754 36.6345L0.747871 36.679ZM1.13814 56.425C1.22122 59.76 1.31259 63.0634 1.41237 66.3353L4.41098 66.2439C4.31137 62.9777 4.22015 59.6799 4.13721 56.3503L1.13814 56.425ZM1.74456 76.2644C1.86414 79.5415 1.99259 82.7861 2.13005 85.9985L5.12731 85.8702C4.99013 82.6643 4.86192 79.426 4.74257 76.155L1.74456 76.2644ZM2.59198 95.9926C2.75713 99.313 2.93244 102.598 3.11805 105.848L6.11316 105.677C5.92799 102.434 5.75307 99.1569 5.58828 95.8436L2.59198 95.9926ZM3.71564 115.642C3.93406 119.002 4.16414 122.322 4.40603 125.605L7.39792 125.384C7.15668 122.111 6.9272 118.799 6.70932 115.447L3.71564 115.642ZM5.16731 135.337C5.4458 138.697 5.73745 142.016 6.04244 145.293L9.02954 145.015C8.72551 141.748 8.43474 138.44 8.15706 135.089L5.16731 135.337ZM7.00699 155.092C7.35249 158.416 7.71264 161.695 8.08765 164.931L11.0677 164.585C10.6941 161.362 10.3352 158.094 9.99091 154.782L7.00699 155.092ZM9.29098 174.768C9.71631 178.067 10.1582 181.318 10.6169 184.523L13.5866 184.098C13.13 180.907 12.6899 177.67 12.2663 174.385L9.29098 174.768ZM12.1013 194.362C12.623 197.645 13.1637 200.878 13.7237 204.059L16.6783 203.539C16.1213 200.374 15.5833 197.159 15.0641 193.891L12.1013 194.362ZM15.5395 213.851C16.1786 217.125 16.84 220.343 17.5239 223.506L20.4561 222.872C19.7766 219.73 19.1193 216.532 18.4839 213.276L15.5395 213.851ZM19.7303 233.19C20.5133 236.454 21.3226 239.656 22.1587 242.796L25.0577 242.025C24.2282 238.909 23.425 235.731 22.6476 232.49L19.7303 233.19ZM24.8252 252.298C25.7844 255.541 26.775 258.716 27.7977 261.821L30.6472 260.883C29.6344 257.807 28.6529 254.662 27.7021 251.447L24.8252 252.298ZM31.0305 271.121C32.1954 274.297 33.3977 277.396 34.6381 280.42L37.4137 279.282C36.1881 276.293 34.9994 273.229 33.847 270.088L31.0305 271.121ZM38.5993 289.543C39.9978 292.586 41.4398 295.546 42.9262 298.426L45.5921 297.051C44.1274 294.212 42.7053 291.293 41.3252 288.29L38.5993 289.543ZM47.7178 307.17C49.4146 310.087 51.1635 312.912 52.9655 315.65L55.4714 314.001C53.7005 311.31 51.9806 308.531 50.3108 305.662L47.7178 307.17ZM58.6734 323.79C60.6782 326.474 62.7424 329.064 64.8671 331.561L67.1521 329.617C65.0692 327.169 63.0444 324.629 61.0768 321.995L58.6734 323.79ZM71.5814 338.944C73.914 341.342 76.3126 343.645 78.7781 345.854L80.7802 343.62C78.3659 341.456 76.0169 339.202 73.7319 336.853L71.5814 338.944ZM86.425 352.243C89.0451 354.283 91.734 356.232 94.4927 358.092L96.1701 355.605C93.4673 353.782 90.8337 351.874 88.2679 349.876L86.425 352.243ZM102.944 363.392C105.796 365.053 108.717 366.632 111.707 368.131L113.052 365.45C110.116 363.978 107.251 362.429 104.454 360.8L102.944 363.392ZM120.717 372.323C123.729 373.621 126.807 374.848 129.95 376.007L130.988 373.192C127.893 372.051 124.865 370.844 121.904 369.568L120.717 372.323ZM139.38 379.222C142.504 380.204 145.69 381.128 148.937 381.994L149.711 379.096C146.504 378.24 143.361 377.329 140.28 376.36L139.38 379.222ZM158.54 384.353C161.724 385.072 164.965 385.741 168.263 386.364L168.82 383.417C165.555 382.8 162.349 382.137 159.199 381.427L158.54 384.353ZM178.093 388.061C181.291 388.562 184.54 389.025 187.84 389.45L188.223 386.475C184.949 386.053 181.728 385.594 178.558 385.097L178.093 388.061ZM197.695 390.596C200.945 390.934 204.241 391.24 207.586 391.514L207.832 388.524C204.508 388.251 201.232 387.948 198.006 387.612L197.695 390.596ZM217.41 392.225C220.684 392.431 224.001 392.61 227.364 392.764L227.501 389.767C224.155 389.614 220.854 389.436 217.598 389.231L217.41 392.225ZM237.185 393.138C240.451 393.238 243.758 393.317 247.105 393.375L247.157 390.375C243.823 390.318 240.529 390.239 237.277 390.139L237.185 393.138ZM256.977 393.486C258.642 393.495 260.316 393.5 262 393.5V390.5C260.321 390.5 258.653 390.495 256.994 390.486L256.977 393.486Z" fill="#FC4F4F"/>
</svg>
