<svg width="394" height="274" viewBox="0 0 394 274" fill="none" xmlns="http://www.w3.org/2000/svg">
<path d="M3.5 2C3.5 1.17157 2.82843 0.5 2 0.5C1.17157 0.5 0.5 1.17157 0.5 2H3.5ZM393.061 263.061C393.646 262.475 393.646 261.525 393.061 260.939L383.515 251.393C382.929 250.808 381.979 250.808 381.393 251.393C380.808 251.979 380.808 252.929 381.393 253.515L389.879 262L381.393 270.485C380.808 271.071 380.808 272.021 381.393 272.607C381.979 273.192 382.929 273.192 383.515 272.607L393.061 263.061ZM0.516633 7.03757C0.522147 7.86598 1.19817 8.53307 2.02658 8.52755C2.85499 8.52204 3.52208 7.84601 3.51657 7.0176L0.516633 7.03757ZM3.65001 16.8636C3.63289 16.0353 2.94759 15.3778 2.11934 15.3949C1.29108 15.412 0.633535 16.0973 0.650656 16.9256L3.65001 16.8636ZM0.929697 26.8048C0.959555 27.6326 1.6549 28.2796 2.48279 28.2497C3.31067 28.2199 3.95761 27.5245 3.92775 26.6966L0.929697 26.8048ZM4.36406 36.5222C4.3202 35.6949 3.614 35.0599 2.78674 35.1037C1.95947 35.1476 1.3244 35.8538 1.36827 36.6811L4.36406 36.5222ZM1.98374 46.5681C2.04306 47.3944 2.761 48.0161 3.5873 47.9568C4.4136 47.8975 5.03536 47.1796 4.97604 46.3533L1.98374 46.5681ZM5.77596 56.1152C5.69969 55.2903 4.96915 54.6834 4.14424 54.7597C3.31933 54.8359 2.71243 55.5665 2.7887 56.3914L5.77596 56.1152ZM3.81605 66.287C3.91118 67.1099 4.65543 67.7 5.47838 67.6048C6.30133 67.5097 6.89133 66.7654 6.7962 65.9425L3.81605 66.287ZM8.03119 75.5872C7.91555 74.7669 7.15681 74.1956 6.33649 74.3113C5.51618 74.4269 4.94492 75.1857 5.06055 76.006L8.03119 75.5872ZM6.59412 85.8915C6.73285 86.7083 7.5074 87.2579 8.32413 87.1192C9.14086 86.9804 9.69048 86.2059 9.55175 85.3892L6.59412 85.8915ZM11.3371 95.0125C11.1732 94.2005 10.382 93.675 9.56996 93.8389C8.75791 94.0028 8.23246 94.794 8.39635 95.606L11.3371 95.0125ZM10.5176 105.274C10.7093 106.08 11.5179 106.578 12.3239 106.387C13.1299 106.195 13.6279 105.386 13.4363 104.58L10.5176 105.274ZM15.8931 114.116C15.6709 113.318 14.8438 112.851 14.0457 113.073C13.2476 113.295 12.7808 114.123 13.003 114.921L15.8931 114.116ZM15.8519 124.393C16.1072 125.181 16.9531 125.613 17.7412 125.358C18.5293 125.102 18.9611 124.256 18.7057 123.468L15.8519 124.393ZM21.9311 132.702C21.6396 131.926 20.7747 131.534 19.9993 131.825C19.2238 132.117 18.8314 132.981 19.1228 133.757L21.9311 132.702ZM22.8621 143C23.1924 143.76 24.076 144.108 24.8357 143.778C25.5955 143.447 25.9436 142.564 25.6133 141.804L22.8621 143ZM29.749 150.656C29.3777 149.915 28.4763 149.616 27.7358 149.987C26.9952 150.359 26.6959 151.26 27.0672 152L29.749 150.656ZM31.7697 160.738C32.1837 161.456 33.101 161.702 33.8186 161.288C34.5362 160.874 34.7822 159.957 34.3682 159.239L31.7697 160.738ZM39.5137 167.554C39.0559 166.863 38.125 166.675 37.4346 167.133C36.7442 167.591 36.5556 168.521 37.0134 169.212L39.5137 167.554ZM42.7844 177.334C43.2859 177.994 44.227 178.121 44.8863 177.62C45.5457 177.118 45.6736 176.177 45.172 175.518L42.7844 177.334ZM51.3306 183.082C50.7865 182.457 49.839 182.392 49.2143 182.936C48.5896 183.48 48.5243 184.427 49.0683 185.052L51.3306 183.082ZM55.8543 192.339C56.4388 192.926 57.3885 192.928 57.9757 192.344C58.5628 191.759 58.565 190.81 57.9806 190.222L55.8543 192.339ZM65.0995 196.918C64.4778 196.37 63.53 196.431 62.9824 197.052C62.4349 197.674 62.495 198.622 63.1167 199.169L65.0995 196.918ZM70.7816 205.498C71.4367 206.005 72.3788 205.886 72.886 205.231C73.3931 204.575 73.2732 203.633 72.6181 203.126L70.7816 205.498ZM80.5113 208.862C79.8269 208.395 78.8937 208.572 78.4269 209.256C77.96 209.94 78.1364 210.874 78.8208 211.34L80.5113 208.862ZM87.2025 216.713C87.9122 217.14 88.8339 216.911 89.2613 216.202C89.6887 215.492 89.4599 214.57 88.7502 214.143L87.2025 216.713ZM97.2911 218.982C96.56 218.592 95.6515 218.869 95.2619 219.6C94.8723 220.331 95.1492 221.24 95.8803 221.629L97.2911 218.982ZM104.715 226.066C105.464 226.42 106.358 226.1 106.712 225.352C107.066 224.603 106.747 223.708 105.998 223.354L104.715 226.066ZM114.94 227.344C114.176 227.023 113.297 227.381 112.975 228.145C112.654 228.909 113.013 229.788 113.776 230.109L114.94 227.344ZM123.063 233.796C123.838 234.087 124.703 233.693 124.993 232.917C125.284 232.142 124.891 231.277 124.115 230.987L123.063 233.796ZM133.296 234.237C132.51 233.974 131.66 234.398 131.397 235.183C131.134 235.969 131.558 236.819 132.344 237.082L133.296 234.237ZM141.797 240.072C142.591 240.309 143.426 239.858 143.664 239.064C143.901 238.27 143.45 237.435 142.656 237.197L141.797 240.072ZM152.153 239.883C151.352 239.669 150.53 240.144 150.316 240.945C150.102 241.745 150.578 242.567 151.378 242.781L152.153 239.883ZM160.911 245.194C161.716 245.387 162.526 244.891 162.719 244.085C162.912 243.279 162.415 242.47 161.61 242.277L160.911 245.194ZM171.269 244.467C170.459 244.294 169.661 244.809 169.488 245.619C169.314 246.429 169.83 247.227 170.64 247.401L171.269 244.467ZM180.267 249.357C181.081 249.513 181.867 248.981 182.024 248.167C182.18 247.354 181.648 246.567 180.834 246.411L180.267 249.357ZM190.547 248.18C189.73 248.039 188.955 248.587 188.814 249.404C188.673 250.22 189.221 250.996 190.037 251.137L190.547 248.18ZM199.772 252.725C200.59 252.851 201.356 252.29 201.483 251.471C201.609 250.652 201.048 249.886 200.229 249.76L199.772 252.725ZM209.98 251.185C209.16 251.071 208.403 251.645 208.289 252.465C208.176 253.286 208.749 254.043 209.57 254.156L209.98 251.185ZM219.361 255.436C220.183 255.537 220.932 254.953 221.034 254.131C221.135 253.308 220.551 252.56 219.729 252.458L219.361 255.436ZM229.52 253.6C228.696 253.51 227.955 254.104 227.865 254.927C227.774 255.751 228.368 256.492 229.191 256.582L229.52 253.6ZM239.001 257.602C239.825 257.683 240.559 257.08 240.64 256.256C240.721 255.431 240.118 254.697 239.293 254.617L239.001 257.602ZM249.136 255.526C248.311 255.454 247.584 256.065 247.512 256.891C247.44 257.716 248.051 258.443 248.876 258.515L249.136 255.526ZM258.672 259.317C259.498 259.381 260.22 258.763 260.283 257.937C260.347 257.111 259.729 256.39 258.903 256.326L258.672 259.317ZM268.816 257.042C267.99 256.986 267.274 257.611 267.218 258.438C267.162 259.264 267.787 259.98 268.614 260.036L268.816 257.042ZM278.373 260.655C279.2 260.704 279.91 260.074 279.959 259.247C280.008 258.42 279.378 257.709 278.551 257.66L278.373 260.655ZM288.495 258.211C287.668 258.169 286.962 258.805 286.92 259.632C286.877 260.459 287.513 261.165 288.34 261.207L288.495 258.211ZM298.108 261.677C298.935 261.714 299.636 261.073 299.673 260.245C299.71 259.417 299.069 258.717 298.241 258.68L298.108 261.677ZM308.118 259.087C307.29 259.056 306.594 259.701 306.562 260.529C306.531 261.357 307.176 262.054 308.004 262.085L308.118 259.087ZM317.888 262.432C318.716 262.458 319.409 261.808 319.436 260.98C319.462 260.152 318.813 259.46 317.985 259.433L317.888 262.432ZM327.781 259.72C326.953 259.698 326.263 260.352 326.241 261.18C326.219 262.008 326.873 262.697 327.701 262.719L327.781 259.72ZM337.693 262.959C338.521 262.977 339.207 262.32 339.225 261.492C339.242 260.664 338.585 259.978 337.757 259.96L337.693 262.959ZM347.501 260.147C346.672 260.133 345.989 260.793 345.975 261.621C345.961 262.45 346.622 263.132 347.45 263.146L347.501 260.147ZM357.336 263.292C358.164 263.302 358.844 262.639 358.855 261.811C358.865 260.983 358.202 260.303 357.374 260.292L357.336 263.292ZM367.298 260.397C366.469 260.39 365.792 261.056 365.785 261.884C365.778 262.713 366.443 263.39 367.272 263.397L367.298 260.397ZM377.047 263.463C377.875 263.468 378.55 262.799 378.554 261.971C378.558 261.142 377.89 260.468 377.062 260.463L377.047 263.463ZM386.982 260.496C386.153 260.495 385.48 261.165 385.479 261.994C385.478 262.822 386.148 263.495 386.977 263.496L386.982 260.496ZM0.5 2C0.5 3.68965 0.505527 5.36882 0.516633 7.03757L3.51657 7.0176C3.50551 5.35562 3.5 3.68311 3.5 2H0.5ZM0.650656 16.9256C0.719617 20.2617 0.812477 23.5546 0.929697 26.8048L3.92775 26.6966C3.8111 23.4623 3.71867 20.1848 3.65001 16.8636L0.650656 16.9256ZM1.36827 36.6811C1.54551 40.0236 1.75049 43.319 1.98374 46.5681L4.97604 46.3533C4.74417 43.1235 4.54035 39.8467 4.36406 36.5222L1.36827 36.6811ZM2.7887 56.3914C3.0984 59.7412 3.44063 63.0395 3.81605 66.287L6.7962 65.9425C6.42351 62.7186 6.08363 59.4431 5.77596 56.1152L2.7887 56.3914ZM5.06055 76.006C5.53302 79.3576 6.04394 82.6525 6.59412 85.8915L9.55175 85.3892C9.00647 82.179 8.49986 78.912 8.03119 75.5872L5.06055 76.006ZM8.39635 95.606C9.05891 98.889 9.76569 102.111 10.5176 105.274L13.4363 104.58C12.6926 101.452 11.9931 98.2631 11.3371 95.0125L8.39635 95.606ZM13.003 114.921C13.9004 118.143 14.8496 121.301 15.8519 124.393L18.7057 123.468C17.7168 120.417 16.7796 117.3 15.8931 114.116L13.003 114.921ZM19.1228 133.757C20.3074 136.909 21.5534 139.99 22.8621 143L25.6133 141.804C24.3254 138.842 23.0984 135.808 21.9311 132.702L19.1228 133.757ZM27.0672 152C28.5647 154.987 30.1317 157.899 31.7697 160.738L34.3682 159.239C32.7602 156.452 31.2209 153.591 29.749 150.656L27.0672 152ZM37.0134 169.212C38.8591 171.995 40.7822 174.702 42.7844 177.334L45.172 175.518C43.2096 172.938 41.324 170.284 39.5137 167.554L37.0134 169.212ZM49.0683 185.052C51.2482 187.555 53.5097 189.983 55.8543 192.339L57.9806 190.222C55.6828 187.914 53.4667 185.534 51.3306 183.082L49.0683 185.052ZM63.1167 199.169C65.5893 201.347 68.1439 203.456 70.7816 205.498L72.6181 203.126C70.0297 201.122 67.524 199.053 65.0995 196.918L63.1167 199.169ZM78.8208 211.34C81.5351 213.192 84.3285 214.982 87.2025 216.713L88.7502 214.143C85.9235 212.44 83.1777 210.681 80.5113 208.862L78.8208 211.34ZM95.8803 221.629C98.7515 223.16 101.696 224.638 104.715 226.066L105.998 223.354C103.021 221.946 100.119 220.489 97.2911 218.982L95.8803 221.629ZM113.776 230.109C116.803 231.382 119.898 232.611 123.063 233.796L124.115 230.987C120.986 229.815 117.928 228.601 114.94 227.344L113.776 230.109ZM132.344 237.082C135.433 238.115 138.583 239.111 141.797 240.072L142.656 237.197C139.472 236.246 136.352 235.259 133.296 234.237L132.344 237.082ZM151.378 242.781C154.499 243.615 157.677 244.42 160.911 245.194L161.61 242.277C158.4 241.508 155.248 240.71 152.153 239.883L151.378 242.781ZM170.64 247.401C173.798 248.078 177.007 248.73 180.267 249.357L180.834 246.411C177.594 245.788 174.405 245.14 171.269 244.467L170.64 247.401ZM190.037 251.137C193.235 251.687 196.479 252.217 199.772 252.725L200.229 249.76C196.954 249.254 193.726 248.728 190.547 248.18L190.037 251.137ZM209.57 254.156C212.79 254.601 216.054 255.027 219.361 255.436L219.729 252.458C216.435 252.052 213.186 251.627 209.98 251.185L209.57 254.156ZM229.191 256.582C232.421 256.938 235.69 257.278 239.001 257.602L239.293 254.617C235.995 254.293 232.737 253.955 229.52 253.6L229.191 256.582ZM248.876 258.515C252.104 258.796 255.37 259.063 258.672 259.317L258.903 256.326C255.609 256.073 252.354 255.806 249.136 255.526L248.876 258.515ZM268.614 260.036C271.832 260.253 275.085 260.46 278.373 260.655L278.551 257.66C275.271 257.466 272.026 257.26 268.816 257.042L268.614 260.036ZM288.34 261.207C291.564 261.374 294.82 261.53 298.108 261.677L298.241 258.68C294.96 258.533 291.711 258.377 288.495 258.211L288.34 261.207ZM308.004 262.085C311.268 262.209 314.562 262.325 317.888 262.432L317.985 259.433C314.664 259.327 311.376 259.211 308.118 259.087L308.004 262.085ZM327.701 262.719C331.001 262.807 334.332 262.887 337.693 262.959L337.757 259.96C334.401 259.888 331.076 259.808 327.781 259.72L327.701 262.719ZM347.45 263.146C350.717 263.202 354.013 263.25 357.336 263.292L357.374 260.292C354.055 260.25 350.764 260.202 347.501 260.147L347.45 263.146ZM367.272 263.397C370.504 263.425 373.763 263.447 377.047 263.463L377.062 260.463C373.781 260.447 370.526 260.425 367.298 260.397L367.272 263.397ZM386.977 263.496C388.645 263.499 390.319 263.5 392 263.5V260.5C390.321 260.5 388.648 260.499 386.982 260.496L386.977 263.496Z" fill="#FC4F4F"/>
</svg>
