<svg width="264" height="274" viewBox="0 0 264 274" fill="none" xmlns="http://www.w3.org/2000/svg">
<path d="M3.5 2C3.5 1.17157 2.82843 0.5 2 0.5C1.17157 0.5 0.5 1.17157 0.5 2H3.5ZM263.061 263.061C263.646 262.475 263.646 261.525 263.061 260.939L253.515 251.393C252.929 250.808 251.979 250.808 251.393 251.393C250.808 251.979 250.808 252.929 251.393 253.515L259.879 262L251.393 270.485C250.808 271.071 250.808 272.021 251.393 272.607C251.979 273.192 252.929 273.192 253.515 272.607L263.061 263.061ZM0.511369 7.09866C0.515093 7.92708 1.18968 8.59563 2.0181 8.5919C2.84652 8.58818 3.51506 7.9136 3.51134 7.08518L0.511369 7.09866ZM3.60269 17.0618C3.59112 16.2334 2.91023 15.5713 2.08188 15.5829C1.25354 15.5944 0.59141 16.2753 0.60298 17.1037L3.60269 17.0618ZM0.794105 27.1111C0.814311 27.9393 1.50206 28.5943 2.33025 28.5741C3.15843 28.5539 3.81342 27.8661 3.79321 27.038L0.794105 27.1111ZM4.09233 36.9927C4.06261 36.1648 3.36739 35.5178 2.53949 35.5475C1.7116 35.5772 1.06454 36.2724 1.09426 37.1003L4.09233 36.9927ZM1.51708 47.1286C1.55734 47.956 2.26076 48.5942 3.08821 48.5539C3.91566 48.5136 4.5538 47.8102 4.51354 46.9828L1.51708 47.1286ZM5.06324 56.8773C5.0114 56.0505 4.29911 55.4223 3.47231 55.4741C2.64551 55.526 2.01728 56.2383 2.06912 57.0651L5.06324 56.8773ZM2.77814 67.1248C2.84301 67.9506 3.56511 68.5676 4.39099 68.5027C5.21687 68.4378 5.8338 67.7157 5.76892 66.8898L2.77814 67.1248ZM6.62608 76.7311C6.54693 75.9064 5.81427 75.3021 4.98963 75.3812C4.165 75.4604 3.56066 76.193 3.6398 77.0177L6.62608 76.7311ZM4.70048 87.0519C4.7958 87.8748 5.54019 88.4646 6.36311 88.3693C7.18604 88.274 7.77588 87.5296 7.68056 86.7067L4.70048 87.0519ZM8.93189 96.5828C8.81862 95.7621 8.06152 95.1887 7.24087 95.302C6.42023 95.4153 5.84679 96.1724 5.96007 96.993L8.93189 96.5828ZM7.43846 106.834C7.5717 107.651 8.34254 108.206 9.16018 108.073C9.97782 107.94 10.5326 107.169 10.3994 106.351L7.43846 106.834ZM12.1469 116.224C11.9909 115.41 11.2049 114.877 10.3913 115.033C9.57768 115.189 9.04457 115.975 9.20055 116.789L12.1469 116.224ZM11.2409 126.615C11.4222 127.423 12.2245 127.932 13.0329 127.75C13.8412 127.569 14.3495 126.767 14.1682 125.958L11.2409 126.615ZM16.4976 135.565C16.2879 134.763 15.4683 134.284 14.6668 134.493C13.8653 134.703 13.3856 135.523 13.5952 136.324L16.4976 135.565ZM16.3319 146.007C16.5735 146.8 17.4117 147.246 18.2041 147.005C18.9966 146.763 19.4431 145.925 19.2016 145.132L16.3319 146.007ZM22.3142 154.585C22.0369 153.805 21.1793 153.396 20.3987 153.674C19.618 153.951 19.2099 154.809 19.4872 155.589L22.3142 154.585ZM23.0929 164.989C23.4096 165.755 24.2869 166.118 25.0524 165.802C25.8179 165.485 26.1817 164.608 25.865 163.842L23.0929 164.989ZM29.9013 172.873C29.5414 172.127 28.6448 171.814 27.8986 172.173C27.1525 172.533 26.8393 173.43 27.1993 174.176L29.9013 172.873ZM31.8547 183.105C32.2613 183.826 33.176 184.082 33.8978 183.675C34.6196 183.269 34.8752 182.354 34.4687 181.632L31.8547 183.105ZM39.6054 190.064C39.1497 189.372 38.2194 189.18 37.5276 189.636C36.8357 190.092 36.6443 191.022 37.1 191.714L39.6054 190.064ZM42.9613 199.933C43.4674 200.588 44.4094 200.71 45.0652 200.204C45.721 199.697 45.8423 198.755 45.3361 198.1L42.9613 199.933ZM51.6673 205.67C51.1111 205.056 50.1625 205.01 49.5486 205.566C48.9347 206.122 48.8879 207.071 49.4441 207.685L51.6673 205.67ZM56.5297 214.899C57.1336 215.466 58.0828 215.437 58.65 214.833C59.2171 214.229 59.1873 213.28 58.5834 212.712L56.5297 214.899ZM66.0447 219.175C65.3974 218.658 64.4535 218.764 63.9366 219.411C63.4197 220.058 63.5255 221.002 64.1728 221.519L66.0447 219.175ZM72.3088 227.511C72.9942 227.976 73.927 227.797 74.3923 227.112C74.8575 226.427 74.679 225.494 73.9936 225.028L72.3088 227.511ZM82.3629 230.269C81.6454 229.855 80.7281 230.101 80.314 230.818C79.8999 231.536 80.1459 232.453 80.8634 232.867L82.3629 230.269ZM89.7608 237.606C90.5045 237.971 91.4033 237.664 91.7683 236.92C92.1333 236.176 91.8264 235.278 91.0827 234.912L89.7608 237.606ZM100.088 238.993C99.3232 238.673 98.4447 239.034 98.1254 239.799C97.8061 240.563 98.167 241.442 98.9314 241.761L100.088 238.993ZM108.318 245.38C109.098 245.657 109.956 245.25 110.233 244.469C110.511 243.688 110.103 242.831 109.322 242.553L108.318 245.38ZM118.744 245.644C117.951 245.404 117.114 245.853 116.874 246.646C116.634 247.439 117.083 248.276 117.876 248.515L118.744 245.644ZM127.576 251.22C128.378 251.425 129.196 250.942 129.402 250.139C129.608 249.337 129.124 248.52 128.322 248.314L127.576 251.22ZM138.036 250.611C137.226 250.435 136.428 250.948 136.252 251.758C136.076 252.567 136.589 253.366 137.399 253.542L138.036 250.611ZM147.191 255.502C148.006 255.652 148.788 255.112 148.937 254.298C149.087 253.483 148.548 252.701 147.733 252.551L147.191 255.502ZM157.52 254.204C156.701 254.077 155.935 254.638 155.808 255.457C155.682 256.276 156.243 257.042 157.061 257.168L157.52 254.204ZM167.017 258.578C167.839 258.684 168.591 258.104 168.697 257.283C168.803 256.461 168.223 255.709 167.402 255.603L167.017 258.578ZM177.315 256.771C176.491 256.683 175.752 257.279 175.664 258.103C175.576 258.926 176.172 259.666 176.996 259.754L177.315 256.771ZM186.915 260.717C187.741 260.79 188.468 260.179 188.541 259.354C188.613 258.529 188.003 257.801 187.177 257.729L186.915 260.717ZM197.141 258.516C196.315 258.457 195.598 259.08 195.539 259.906C195.481 260.733 196.103 261.45 196.93 261.508L197.141 258.516ZM206.932 262.139C207.759 262.185 208.467 261.552 208.513 260.725C208.559 259.898 207.926 259.19 207.099 259.144L206.932 262.139ZM217.018 259.63C216.191 259.595 215.491 260.237 215.456 261.065C215.42 261.893 216.063 262.592 216.891 262.627L217.018 259.63ZM226.972 262.997C227.8 263.023 228.492 262.372 228.518 261.544C228.544 260.716 227.893 260.024 227.065 259.998L226.972 262.997ZM236.96 260.253C236.132 260.236 235.447 260.894 235.43 261.722C235.412 262.55 236.07 263.235 236.898 263.253L236.96 260.253ZM246.937 263.415C247.766 263.424 248.445 262.761 248.455 261.932C248.464 261.104 247.801 260.425 246.972 260.415L246.937 263.415ZM256.931 260.491C256.102 260.488 255.428 261.157 255.425 261.985C255.422 262.814 256.091 263.488 256.919 263.491L256.931 260.491ZM0.5 2C0.5 3.7103 0.503777 5.40984 0.511369 7.09866L3.51134 7.08518C3.50377 5.40092 3.5 3.70589 3.5 2H0.5ZM0.60298 17.1037C0.650194 20.4839 0.713796 23.8195 0.794105 27.1111L3.79321 27.038C3.71317 23.7571 3.64976 20.4319 3.60269 17.0618L0.60298 17.1037ZM1.09426 37.1003C1.21596 40.4915 1.35678 43.8341 1.51708 47.1286L4.51354 46.9828C4.35387 43.7015 4.21359 40.3717 4.09233 36.9927L1.09426 37.1003ZM2.06912 57.0651C2.28274 60.4718 2.51892 63.8247 2.77814 67.1248L5.76892 66.8898C5.51099 63.6061 5.27591 60.2689 5.06324 56.8773L2.06912 57.0651ZM3.6398 77.0177C3.96647 80.4212 4.31984 83.7657 4.70048 87.0519L7.68056 86.7067C7.30226 83.4407 6.95094 80.1159 6.62608 76.7311L3.6398 77.0177ZM5.96007 96.993C6.4216 100.337 6.91417 103.616 7.43846 106.834L10.3994 106.351C9.87919 103.159 9.39023 99.9032 8.93189 96.5828L5.96007 96.993ZM9.20055 116.789C9.84224 120.136 10.5221 123.411 11.2409 126.615L14.1682 125.958C13.4564 122.786 12.7829 119.541 12.1469 116.224L9.20055 116.789ZM13.5952 136.324C14.4604 139.632 15.3723 142.859 16.3319 146.007L19.2016 145.132C18.2541 142.024 17.3531 138.836 16.4976 135.565L13.5952 136.324ZM19.4872 155.589C20.6316 158.811 21.833 161.944 23.0929 164.989L25.865 163.842C24.6254 160.846 23.4422 157.761 22.3142 154.585L19.4872 155.589ZM27.1993 174.176C28.6817 177.249 30.2329 180.225 31.8547 183.105L34.4687 181.632C32.8791 178.81 31.3571 175.891 29.9013 172.873L27.1993 174.176ZM37.1 191.714C38.9723 194.556 40.9254 197.295 42.9613 199.933L45.3361 198.1C43.3469 195.522 41.4373 192.845 39.6054 190.064L37.1 191.714ZM49.4441 207.685C51.7159 210.192 54.0771 212.596 56.5297 214.899L58.5834 212.712C56.1898 210.464 53.8851 208.118 51.6673 205.67L49.4441 207.685ZM64.1728 221.519C66.7927 223.611 69.5041 225.607 72.3088 227.511L73.9936 225.028C71.2518 223.168 68.603 221.218 66.0447 219.175L64.1728 221.519ZM80.8634 232.867C83.741 234.528 86.7062 236.106 89.7608 237.606L91.0827 234.912C88.0863 233.442 85.1804 231.895 82.3629 230.269L80.8634 232.867ZM98.9314 241.761C101.979 243.034 105.107 244.239 108.318 245.38L109.322 242.553C106.161 241.43 103.083 240.244 100.088 238.993L98.9314 241.761ZM117.876 248.515C121.036 249.47 124.268 250.371 127.576 251.22L128.322 248.314C125.053 247.475 121.861 246.586 118.744 245.644L117.876 248.515ZM137.399 253.542C140.597 254.237 143.861 254.89 147.191 255.502L147.733 252.551C144.434 251.945 141.202 251.299 138.036 250.611L137.399 253.542ZM157.061 257.168C160.32 257.672 163.639 258.142 167.017 258.578L167.402 255.603C164.046 255.169 160.753 254.704 157.52 254.204L157.061 257.168ZM176.996 259.754C180.249 260.102 183.555 260.422 186.915 260.717L187.177 257.729C183.836 257.436 180.548 257.117 177.315 256.771L176.996 259.754ZM196.93 261.508C200.215 261.741 203.549 261.95 206.932 262.139L207.099 259.144C203.73 258.956 200.411 258.747 197.141 258.516L196.93 261.508ZM216.891 262.627C220.206 262.769 223.566 262.892 226.972 262.997L227.065 259.998C223.67 259.893 220.321 259.771 217.018 259.63L216.891 262.627ZM236.898 263.253C240.203 263.321 243.549 263.375 246.937 263.415L246.972 260.415C243.593 260.375 240.256 260.322 236.96 260.253L236.898 263.253ZM256.919 263.491C258.603 263.497 260.296 263.5 262 263.5V260.5C260.3 260.5 258.61 260.497 256.931 260.491L256.919 263.491Z" fill="#FC4F4F"/>
</svg>
