<svg width="90" height="90" viewBox="0 0 90 90" fill="none" xmlns="http://www.w3.org/2000/svg">
<path fill-rule="evenodd" clip-rule="evenodd" d="M54.1337 5.10239C46.2235 6.34255 40.0283 12.2266 38.3325 20.1099C37.9755 21.7694 37.9324 25.6088 38.2525 27.2265C39.0102 31.0553 40.7705 34.371 43.491 37.0942C46.2116 39.8173 49.5242 41.5792 53.3492 42.3376C54.9633 42.6576 58.8005 42.6149 60.4591 42.2583C67.9642 40.6451 73.6624 34.8208 75.1651 27.2265C75.4853 25.6088 75.4422 21.7694 75.0851 20.1099C73.4794 12.6446 67.8087 6.92408 60.4161 5.31182C59.0683 5.01777 55.4436 4.89702 54.1337 5.10239ZM53.1189 14.7941C53.8122 15.1482 54.3649 16.0493 54.3649 16.8254C54.3649 18.0208 53.2097 19.1715 52.0095 19.1715C50.86 19.1715 49.6771 17.9815 49.6771 16.8254C49.6771 16.0732 50.2301 15.1504 50.8899 14.8018C51.6438 14.4034 52.349 14.401 53.1189 14.7941ZM62.4929 14.7692C63.5527 15.3337 64.0213 16.7666 63.4853 17.804C63.345 18.0757 61.0707 21.5386 58.4313 25.4993C53.3099 33.1848 53.2574 33.2483 52.0095 33.2483C51.2277 33.2483 50.3439 32.6919 49.9745 31.9673C49.3287 30.7001 49.2879 30.78 54.7861 22.5283C60.1175 14.5271 60.1297 14.5124 61.3991 14.4892C61.7012 14.4838 62.1934 14.6097 62.4929 14.7692ZM62.4945 28.8709C63.1878 29.225 63.7405 30.126 63.7405 30.9021C63.7405 32.0922 62.5856 33.2483 61.3966 33.2483C60.6213 33.2483 59.721 32.695 59.3673 32.0011C58.7719 30.833 59.1201 29.6055 60.2392 28.9275C60.9874 28.4742 61.6834 28.4567 62.4945 28.8709ZM36.7548 42.9551C34.4259 43.2586 31.6768 44.3885 30.033 45.7179C29.525 46.1287 26.2518 49.1689 22.7591 52.4739L16.4087 58.4831L17.1725 59.3558C17.5925 59.836 20.9638 63.2543 24.6642 66.9523L31.3921 73.676L32.7639 72.3093L34.1356 70.9427H49.7256C64.9559 70.9427 65.3289 70.9355 65.8953 70.6335C66.2141 70.4633 70.5534 66.5031 75.5381 61.8329C85.3176 52.6703 85.1778 52.8242 84.9282 51.4922C84.5701 49.5817 81.2649 48.0975 78.433 48.5757C76.3014 48.9354 75.7505 49.3299 69.4246 55.0242C63.4089 60.4396 62.8408 60.8636 61.1155 61.2273C60.5689 61.3425 57.6051 61.4018 52.3978 61.4018C44.7989 61.4018 44.4854 61.3902 43.8915 61.087C43.1982 60.7328 42.6455 59.8318 42.6455 59.0557C42.6455 58.3604 43.1591 57.4623 43.7635 57.1006C44.2629 56.8017 44.64 56.7843 52.2554 56.7096C59.9417 56.6342 60.25 56.6196 60.9358 56.302C61.9754 55.8205 62.7325 55.0859 63.2264 54.0791C63.5858 53.3463 63.6624 52.9845 63.6624 52.0173C63.6624 50.0622 62.6998 48.5496 60.9358 47.7326C60.2633 47.4211 59.9321 47.4007 54.8337 47.3569L49.4428 47.3108L48.8177 46.7141C45.7383 43.7744 41.2355 42.3711 36.7548 42.9551ZM9.59656 60.7066C8.92324 61.0532 5.64522 64.3442 5.28817 65.032C4.91893 65.7434 4.90455 66.4191 5.24489 67.0794C5.57397 67.7181 22.0458 84.3821 22.701 84.7392C23.3505 85.0933 24.0893 85.0866 24.7991 84.7203C25.5272 84.3444 28.976 80.8575 29.1982 80.2725C29.4186 79.6925 29.3984 78.768 29.1559 78.331C28.8718 77.8188 12.3449 61.0929 11.7856 60.7515C11.2121 60.4016 10.2285 60.3814 9.59656 60.7066Z" fill="#2D3768"/>
</svg>
