<svg width="90" height="90" viewBox="0 0 90 90" fill="none" xmlns="http://www.w3.org/2000/svg">
<path fill-rule="evenodd" clip-rule="evenodd" d="M52.6798 8.68689C50.5451 9.08919 48.7735 9.43911 48.7428 9.46451C48.7122 9.48991 48.9516 9.9139 49.2746 10.4068C50.0025 11.5175 50.5093 12.6441 50.9192 14.0634C51.3653 15.6075 51.3601 18.6452 50.9088 20.2762C49.2805 26.1608 43.5501 30.0685 37.5749 29.3689C32.1863 28.738 27.9105 24.8712 26.7984 19.6229C26.5265 18.3397 26.5306 15.949 26.8071 14.6447C26.927 14.0784 26.9941 13.5842 26.956 13.5465C26.9179 13.5087 24.96 13.8418 22.6049 14.2866C17.7855 15.197 16.8422 15.5235 15.6212 16.7038C13.3591 18.8904 13.4801 22.5943 15.8848 24.766C16.3052 25.1457 19.7805 27.324 23.9822 29.8414C28.0307 32.267 31.3893 34.322 31.4456 34.4081C31.5021 34.4941 31.9367 36.6195 32.4115 39.1312L33.2746 43.6978L43.732 43.7345C50.6039 43.7585 54.1892 43.7224 54.1892 43.6289C54.1892 43.4926 51.9576 31.448 51.8211 30.8482C51.7718 30.631 53.0886 28.8697 56.9959 23.9269C60.4454 19.5631 62.4135 16.9497 62.7535 16.2814C64.3042 13.2334 62.8879 9.57511 59.6923 8.37464C58.1895 7.80995 57.0681 7.85989 52.6798 8.68689ZM37.8734 9.18195C34.6194 9.676 31.9376 12.0518 31.1211 15.1636C30.2721 18.3995 31.6702 21.9706 34.5221 23.8505C39.1316 26.8888 45.4959 24.3342 46.7789 18.9304C47.2037 17.1409 46.9117 14.9455 46.0344 13.3318C45.1252 11.6594 43.2653 10.1398 41.373 9.52302C40.4934 9.23646 38.6791 9.0595 37.8734 9.18195ZM16.5262 30.4566C16.5262 30.5802 22.265 57.0225 22.3654 57.3622C22.4343 57.5946 22.8377 57.6119 28.1969 57.6119H33.9543L33.6022 57.1481C32.9739 56.3204 32.1719 54.8565 31.6675 53.6161C30.9647 51.8883 30.5035 50.0675 29.0289 43.1996C28.3129 39.8645 27.6812 37.0931 27.6252 37.0409C27.3678 36.8016 16.5262 30.3699 16.5262 30.4566ZM34.5796 48.5856C34.6331 48.88 34.8304 49.6526 35.018 50.3027C35.9734 53.6132 37.385 55.6384 39.4655 56.6834C41.1569 57.533 40.9916 57.5197 50.4761 57.5751L59.1973 57.6262L59.3359 58.0115C61.3238 63.5403 66.9268 78.4829 67.141 78.8268C67.527 79.447 68.4342 80.2081 69.2635 80.6072C70.2797 81.0966 72.0875 81.0779 73.1857 80.5668C75.2654 79.5989 76.4221 77.2601 75.8573 75.165C75.4854 73.7852 67.8437 53.1537 67.3742 52.2619C66.7598 51.0948 65.1528 49.5316 63.9643 48.9449C62.0857 48.0176 62.6757 48.0504 47.8993 48.0504H34.4821L34.5796 48.5856ZM22.8841 70.7307C22.9226 79.4436 22.9274 79.5739 23.2239 79.971C23.3894 80.1927 23.7452 80.5242 24.0146 80.7077C24.9469 81.343 26.4164 80.8956 26.9306 79.8201C27.1353 79.3915 27.1639 78.5273 27.1639 72.7531V66.1744H32.4827H37.8015V72.7436C37.8015 79.9839 37.8008 79.9773 38.6837 80.6024C39.0444 80.8578 39.3562 80.9447 39.9113 80.9447C40.7152 80.9447 41.2032 80.6834 41.7457 79.9623C42.0338 79.5794 42.0433 79.3797 42.0834 72.8714L42.1248 66.1744H43.7006H45.2766V64.0338V61.8932H34.0608H22.845L22.8841 70.7307ZM49.6203 69.7064L49.661 77.5197L50.0644 78.3352C51.653 81.5467 56.2498 81.9074 58.2664 78.9789C59.0868 77.7873 59.2205 76.9957 59.2205 73.3277V70.1233L57.7641 66.1865C56.9631 64.0214 56.277 62.1697 56.2393 62.0715C56.1873 61.936 55.3794 61.8932 52.8753 61.8932H49.5798L49.6203 69.7064Z" fill="#2D3768"/>
</svg>
