<svg width="91" height="90" viewBox="0 0 91 90" fill="none" xmlns="http://www.w3.org/2000/svg">
<path fill-rule="evenodd" clip-rule="evenodd" d="M44.7439 5.26665C44.5311 5.41193 43.7937 6.03312 43.1051 6.64711C39.8208 9.57572 36.4562 11.5357 32.3864 12.8913C29.0086 14.0164 26.0804 14.3953 20.7616 14.3955C17.6533 14.3956 17.2974 14.4235 16.7344 14.7107C16.332 14.9161 16.0044 15.2463 15.7943 15.6584C15.4738 16.2871 15.4723 16.3854 15.527 32.6028C15.5874 50.5052 15.5541 49.8223 16.5765 54.0813C18.2228 60.9378 22.1226 67.3047 27.978 72.6952C31.1904 75.6528 33.8734 77.6496 39.598 81.3439C43.4693 83.8421 45.4874 85.0003 45.9693 85C46.5086 84.9998 48.2085 84.0444 51.9462 81.641C57.8542 77.8419 60.4647 75.9271 63.6269 73.0735C69.6989 67.5939 73.7421 61.0843 75.4235 54.0813C76.4459 49.8223 76.4126 50.5052 76.473 32.6028C76.5277 16.3854 76.5262 16.2871 76.2057 15.6584C75.9956 15.2463 75.668 14.9161 75.2656 14.7107C74.7026 14.4235 74.3467 14.3956 71.2384 14.3955C65.9196 14.3953 62.9914 14.0164 59.6136 12.8913C55.5438 11.5357 52.1792 9.57572 48.8949 6.64711C48.2064 6.03312 47.4689 5.41193 47.2561 5.26665C46.7355 4.91112 45.2646 4.91112 44.7439 5.26665ZM48.8166 24.0169C53.4423 24.642 57.5193 26.6774 60.8783 30.0379C67.086 36.2483 68.7966 45.2523 65.3117 53.3714C63.2907 58.0796 59.1505 62.2218 54.4444 64.2437C48.9047 66.6237 43.0953 66.6237 37.5556 64.2437C32.8495 62.2218 28.7093 58.0796 26.6883 53.3714C23.8185 46.6852 24.4596 39.2778 28.4287 33.2655C29.804 31.1821 32.2682 28.7169 34.3423 27.3496C38.6806 24.4894 43.7232 23.3284 48.8166 24.0169ZM43.3399 28.7238C37.0137 29.837 31.9916 34.331 30.2224 40.4614C27.7294 49.1008 32.8078 58.1856 41.5404 60.708C51.03 63.4489 60.7807 57.0752 62.262 47.163C62.9966 42.2475 61.2075 36.9563 57.5852 33.3325C53.8573 29.6027 48.3924 27.8347 43.3399 28.7238ZM56.4834 38.2099C57.181 38.6022 57.7359 39.5086 57.7359 40.2563C57.7359 40.5811 57.5583 41.065 57.2843 41.4874C56.6956 42.3946 45.2919 53.7364 44.6386 54.0646C44.0007 54.385 43.3034 54.3846 42.667 54.0635C42.0076 53.7305 35.2951 47.0794 34.7151 46.1839C34.1729 45.3472 34.1372 44.6438 34.5955 43.8278C35.2084 42.7367 36.5399 42.2932 37.5971 42.8283C37.8725 42.9678 39.3487 44.3224 40.8777 45.8386L43.6577 48.5955L48.7016 43.5631C51.4758 40.7953 53.9921 38.3843 54.2934 38.2052C54.9933 37.7889 55.7378 37.7906 56.4834 38.2099Z" fill="#2D3768"/>
</svg>
