<svg width="90" height="90" viewBox="0 0 90 90" fill="none" xmlns="http://www.w3.org/2000/svg">
<path fill-rule="evenodd" clip-rule="evenodd" d="M43.7615 3.07921C33.9695 3.88807 25.2941 7.62954 18.6735 13.8991C11.167 21.0074 6.72931 29.5326 5.29538 39.6001C4.87035 42.5836 4.90928 47.9853 5.37814 51.1219C6.09266 55.9021 7.40945 60.1717 9.48019 64.4235C16.8777 79.6125 31.6705 88.6166 48.16 87.9671C52.1945 87.8083 55.5838 87.2097 59.3003 85.9997C69.9886 82.52 78.7545 74.9324 83.8295 64.7681C85.0979 62.2275 85.2162 61.7097 84.748 60.745C84.2478 59.7147 83.7049 59.369 82.5865 59.369C81.2453 59.369 80.9444 59.6667 79.5502 62.3722C73.3836 74.3407 63.3085 81.4239 50.6037 82.7227C48.046 82.9842 43.5494 82.8297 40.992 82.3924C32.7291 80.9795 25.3205 77.0719 19.8148 71.2225C12.1962 63.1284 8.66711 51.6204 10.2244 39.9501C12.4507 23.2652 26.0914 10.0835 43.1747 8.10831C45.6522 7.82191 50.9383 7.99086 53.2102 8.42926C58.2611 9.40359 62.6994 11.2286 66.8539 14.04C67.7275 14.631 68.4422 15.1474 68.4422 15.1874C68.4422 15.2273 67.846 15.2535 67.1171 15.2455C66.0468 15.2339 65.7102 15.2929 65.3659 15.5529C63.5189 16.9477 63.9841 19.5784 66.1615 20.0547C66.5647 20.1429 69.2038 20.266 72.0262 20.3285L77.1579 20.4418L77.7281 20.0502C78.3841 19.5995 78.8678 18.7283 78.8681 17.9966C78.8684 17.4673 75.445 7.81959 75.0216 7.15625C74.0657 5.6588 71.7089 5.82658 70.8617 7.45228C70.477 8.19054 70.4818 8.66632 70.8864 9.86508C71.0657 10.3968 71.1918 10.853 71.1666 10.8788C71.1413 10.9045 70.2797 10.3611 69.2519 9.67105C63.8625 6.05235 57.3548 3.79255 50.4408 3.13918C48.7864 2.98286 45.3065 2.95163 43.7615 3.07921ZM42.365 16.6799C37.5069 17.4522 32.3359 19.7671 28.856 22.7275L28.2864 23.2119L29.5348 24.5201C30.4624 25.4921 30.8117 25.983 30.8939 26.4301C31.1921 28.0509 30.1242 29.3834 28.5269 29.3834C27.6279 29.3834 27.342 29.2113 25.985 27.8541L24.8253 26.694L24.0933 27.6649C21.0106 31.7539 18.8194 37.1853 18.3294 41.9526L18.2242 42.9761L20.1072 43.0324C22.3008 43.098 22.7083 43.2956 23.216 44.539C23.5946 45.466 23.4821 46.2679 22.8695 47.0105C22.2291 47.7864 21.5923 47.9894 19.798 47.9894H18.2242L18.3371 49.0277C18.6411 51.8206 19.5837 55.1084 20.8954 57.9511C21.8267 59.9694 24.4774 64.1036 24.8401 64.1036C24.8878 64.1036 25.4259 63.6082 26.0358 63.0028C27.6442 61.4064 28.3459 61.1645 29.5884 61.7778C30.7147 62.3338 31.2418 63.6821 30.8016 64.8819C30.7073 65.139 30.1024 65.8939 29.4576 66.5592C28.7483 67.2912 28.3537 67.816 28.4588 67.8882C28.5544 67.9538 29.0676 68.3522 29.5991 68.7737C31.7694 70.4936 34.9344 72.1716 37.8373 73.1413C39.6358 73.7421 42.649 74.4033 43.5883 74.4033H44.1318L44.1937 72.6994C44.2419 71.3709 44.3281 70.8687 44.5845 70.421C45.4807 68.8562 47.8326 68.7876 48.7367 70.2999C49.0006 70.7411 49.0549 71.1396 49.0554 72.6414L49.056 74.451L50.2168 74.341C52.8662 74.09 56.1318 73.1173 58.9935 71.7269C60.5309 70.98 63.663 68.976 64.6784 68.0896L65.0687 67.7488L63.8335 66.4547C62.5319 65.0907 62.3212 64.6534 62.4594 63.6029C62.5786 62.6961 63.1089 62.0182 63.9573 61.6878C65.1453 61.2253 65.6922 61.4326 67.1875 62.9129L68.4742 64.1866L69.0429 63.5221C70.5881 61.7167 72.6779 57.8858 73.6265 55.1197C74.1566 53.5739 74.8708 50.472 75.048 48.9447L75.159 47.9894L73.5519 47.9858C71.5038 47.9811 70.7409 47.6733 70.2258 46.6437C69.5857 45.3642 70.0145 43.9252 71.2233 43.2967C71.6473 43.0761 72.1839 43.0062 73.4517 43.006C75.4094 43.0057 75.2719 43.271 74.7934 40.4173C74.058 36.0309 72.1872 31.6618 69.4418 27.9199L68.551 26.7055L67.397 27.8597C66.037 29.22 65.7611 29.3836 64.8283 29.3828C63.523 29.3816 62.4164 28.2913 62.4152 27.0052C62.4144 26.1405 62.5948 25.8358 63.9397 24.4306L65.1026 23.2157L64.6139 22.8022C63.4709 21.8354 60.6182 20.0012 59.0823 19.2457C56.3358 17.8949 52.9758 16.8952 49.925 16.521L49.0836 16.4179L49.029 18.413L48.9746 20.408L48.3754 21.0187C47.865 21.5387 47.6474 21.6392 46.9092 21.6957C45.8516 21.7767 45.0553 21.3888 44.5775 20.56C44.3222 20.117 44.2404 19.6178 44.193 18.2115C44.1525 17.0091 44.072 16.431 43.947 16.4418C43.8451 16.4506 43.1331 16.5578 42.365 16.6799ZM47.7202 32.2748C47.9621 32.4033 48.3433 32.7081 48.5673 32.9525L48.9746 33.3969L49.0213 38.9072L49.0681 44.4178L52.3028 47.7402C55.7146 51.2447 55.8893 51.5031 55.6653 52.7202C55.3864 54.2366 53.5388 55.1268 52.1839 54.3977C51.942 54.2675 50.1192 52.4921 48.1335 50.4522C45.0302 47.2648 44.4965 46.6425 44.3362 46.025C44.2082 45.5319 44.1655 43.4996 44.1999 39.5461C44.2492 33.9009 44.2575 33.7738 44.6177 33.183C45.2461 32.1527 46.6921 31.7295 47.7202 32.2748Z" fill="#2D3768"/>
</svg>
